<?xml version="1.0" encoding="utf-8"?>
<!-- Generator: Adobe Illustrator 18.0.0, SVG Export Plug-In . SVG Version: 6.00 Build 0)  -->
<!DOCTYPE svg PUBLIC "-//W3C//DTD SVG 1.1//EN" "http://www.w3.org/Graphics/SVG/1.1/DTD/svg11.dtd">
<svg version="1.1" id="Layer_1" xmlns="http://www.w3.org/2000/svg" xmlns:xlink="http://www.w3.org/1999/xlink" x="0px" y="0px"
	 viewBox="0 0 100 100" enable-background="new 0 0 100 100" xml:space="preserve">
<g>
	<path fill="#D7D6D6" d="M82.6,51c-2.1,0-4.7,0-7.4,0c0.5-1.7,0.8-3.4,0.8-5.2c0-12.3-13-22.3-28.9-22.3c-15.5,0-28.2,9.5-28.9,21.3
		C8.7,46.7,1.8,53.2,1.8,61c0,9.3,9.8,16.8,21.8,16.8c16.8,0.1,29.8,0,39.6-0.2c5.6,0.1,12,0.2,19.4,0.2c9.6,0,17.4-6,17.4-13.4
		C100,57,92.2,51,82.6,51z"/>
	<path fill="#FFFFFF" d="M80.8,49.7c-2.1,0-4.7,0-7.4,0c0.5-1.7,0.8-3.4,0.8-5.2c0-12.3-13-22.3-28.9-22.3
		c-15.5,0-28.2,9.5-28.9,21.3C6.9,45.3,0,51.9,0,59.7C0,69,9.8,76.5,21.8,76.5c16.8,0.1,29.8,0,39.6-0.2c5.6,0.1,12,0.2,19.4,0.2
		c9.6,0,17.4-6,17.4-13.4C98.2,55.7,90.4,49.7,80.8,49.7z"/>
</g>
<g>
</g>
<g>
</g>
<g>
</g>
<g>
</g>
<g>
</g>
<g>
</g>
</svg>
