<?xml version="1.0" encoding="utf-8"?>
<!-- Generator: Adobe Illustrator 18.0.0, SVG Export Plug-In . SVG Version: 6.00 Build 0)  -->
<!DOCTYPE svg PUBLIC "-//W3C//DTD SVG 1.1//EN" "http://www.w3.org/Graphics/SVG/1.1/DTD/svg11.dtd">
<svg version="1.1" id="Layer_1" xmlns="http://www.w3.org/2000/svg" xmlns:xlink="http://www.w3.org/1999/xlink" x="0px" y="0px"
	 viewBox="0 0 100 100" enable-background="new 0 0 100 100" xml:space="preserve">
<g>
	<path fill="#D7D6D6" d="M100,64.8c0-6.7-4.9-12.4-11.3-13.6c0.2-0.7,0.2-1.4,0.2-2.1c0-5.1-4.2-9.3-9.3-9.3c-1.7,0-3.4,0.5-4.8,1.3
		c-2.1-10.5-11.4-18.4-22.5-18.4c-12.7,0-22.9,10.3-22.9,22.9c0,0.7,0,1.3,0.1,2c-2.9-2.2-6.6-3.6-10.5-3.6
		c-9.5,0-17.2,7.7-17.2,17.2c0,8.9,6.8,16.3,15.5,17.2l-0.1,0.1h70.1l0,0C94.4,78,100,72.1,100,64.8z"/>
	<path fill="#FFFFFF" d="M98.2,63.5c0-6.7-4.9-12.4-11.3-13.6c0.2-0.7,0.2-1.4,0.2-2.1c0-5.1-4.2-9.3-9.3-9.3
		c-1.7,0-3.4,0.5-4.8,1.3C71,29.3,61.7,21.4,50.6,21.4c-12.7,0-22.9,10.3-22.9,22.9c0,0.7,0,1.3,0.1,2c-2.9-2.2-6.6-3.6-10.5-3.6
		C7.7,42.7,0,50.5,0,60c0,8.9,6.8,16.3,15.5,17.2l-0.1,0.1h70.1l0,0C92.6,76.6,98.2,70.7,98.2,63.5z"/>
</g>
<g>
</g>
<g>
</g>
<g>
</g>
<g>
</g>
<g>
</g>
<g>
</g>
</svg>
