<?xml version="1.0" encoding="utf-8"?>
<!-- Generator: Adobe Illustrator 18.0.0, SVG Export Plug-In . SVG Version: 6.00 Build 0)  -->
<!DOCTYPE svg PUBLIC "-//W3C//DTD SVG 1.1//EN" "http://www.w3.org/Graphics/SVG/1.1/DTD/svg11.dtd">
<svg version="1.1" id="Layer_1" xmlns="http://www.w3.org/2000/svg" xmlns:xlink="http://www.w3.org/1999/xlink" x="0px" y="0px"
	 viewBox="0 0 100 100" enable-background="new 0 0 100 100" xml:space="preserve">
<g>
	<path fill="#D7D6D6" d="M89.4,51.2c0.4-1.6,0.6-3.3,0.6-5.1c0-13-11-23.5-24.6-23.5c-9.3,0-17.5,5-21.6,12.3
		c-2.5-1.3-5.4-2.1-8.4-2.1c-9.6,0-17.5,7.5-17.5,16.7c0,0.2,0,0.5,0,0.7h-0.1c-8.2,0-14.9,6.4-14.9,14.3c0,7.9,6.7,14.3,14.9,14.3
		H84c8.2,0,14.9-6.4,14.9-14.3C98.9,58.4,95,53.2,89.4,51.2z"/>
	<path fill="#FFFFFF" d="M87.6,49.9c0.4-1.6,0.6-3.3,0.6-5.1c0-13-11-23.5-24.6-23.5c-9.3,0-17.5,5-21.6,12.3
		c-2.5-1.3-5.4-2.1-8.4-2.1C23.8,31.5,16,39,16,48.2c0,0.2,0,0.5,0,0.7H16c-8.2,0-14.9,6.4-14.9,14.3c0,7.9,6.7,14.3,14.9,14.3h66.3
		c8.2,0,14.9-6.4,14.9-14.3C97.1,57.1,93.2,51.9,87.6,49.9z"/>
</g>
<g>
</g>
<g>
</g>
<g>
</g>
<g>
</g>
<g>
</g>
<g>
</g>
</svg>
