<?xml version="1.0" encoding="utf-8"?>
<!-- Generator: Adobe Illustrator 18.0.0, SVG Export Plug-In . SVG Version: 6.00 Build 0)  -->
<!DOCTYPE svg PUBLIC "-//W3C//DTD SVG 1.1//EN" "http://www.w3.org/Graphics/SVG/1.1/DTD/svg11.dtd">
<svg version="1.1" id="Layer_1" xmlns="http://www.w3.org/2000/svg" xmlns:xlink="http://www.w3.org/1999/xlink" x="0px" y="0px"
	 viewBox="0 0 100 100" enable-background="new 0 0 100 100" xml:space="preserve">
<g>
	<path fill="#D7D6D6" d="M96.2,60c2.4-3.3,3.8-7.4,3.8-11.8c0-11.1-9-20-20-20c-2,0-3.9,0.3-5.7,0.8c-2.9-9.2-11.5-15.9-21.7-15.9
		c-7.9,0-14.8,4-18.9,10.1c-1.6-0.9-3.4-1.5-5.3-1.5c-5.7,0-10.4,4.6-10.4,10.4c0,0.3,0,0.5,0,0.8c-5.3,0.8-9.8,3.9-12.5,8.3
		C3.2,44.5,1.7,48.6,1.7,53c0,11.1,9,20,20,20c2,0,3.9-0.3,5.7-0.8c2.9,9.2,11.5,15.9,21.7,15.9c7.9,0,14.8-4,18.9-10.1
		c1.6,0.9,3.4,1.5,5.3,1.5c5.7,0,10.4-4.6,10.4-10.4c0-0.3,0-0.5,0-0.8C89,67.5,93.5,64.4,96.2,60z"/>
	<path fill="#FFFFFF" d="M94.4,58.8c2.4-3.3,3.8-7.4,3.8-11.8c0-11.1-9-20-20-20c-2,0-3.9,0.3-5.7,0.8c-2.9-9.2-11.5-15.9-21.7-15.9
		c-7.9,0-14.8,4-18.9,10.1c-1.6-0.9-3.4-1.5-5.3-1.5c-5.7,0-10.4,4.6-10.4,10.4c0,0.3,0,0.5,0,0.8C11,32.5,6.5,35.6,3.8,40
		C1.4,43.3,0,47.3,0,51.7c0,11.1,9,20,20,20c2,0,3.9-0.3,5.7-0.8c2.9,9.2,11.5,15.9,21.7,15.9c7.9,0,14.8-4,18.9-10.1
		c1.6,0.9,3.4,1.5,5.3,1.5c5.7,0,10.4-4.6,10.4-10.4c0-0.3,0-0.5,0-0.8C87.2,66.3,91.8,63.1,94.4,58.8z"/>
</g>
<g>
</g>
<g>
</g>
<g>
</g>
<g>
</g>
<g>
</g>
<g>
</g>
</svg>
