<?xml version="1.0" standalone="no"?>
<!DOCTYPE svg PUBLIC "-//W3C//DTD SVG 20010904//EN"
 "http://www.w3.org/TR/2001/REC-SVG-20010904/DTD/svg10.dtd">
<svg version="1.0" xmlns="http://www.w3.org/2000/svg"
 width="3200.000000pt" height="3200.000000pt" viewBox="0 0 3200.000000 3200.000000"
 preserveAspectRatio="xMidYMid meet">
<metadata>
Created by potrace 1.11, written by Peter Selinger 2001-2013
</metadata>
<g transform="translate(0.000000,3200.000000) scale(0.100000,-0.100000)"
fill="#000000" stroke="none">
<path d="M17285 30255 c-240 -56 -304 -99 -716 -484 -92 -86 -206 -185 -255
-221 -191 -141 -214 -160 -261 -217 -27 -33 -75 -97 -108 -143 -99 -142 -171
-226 -375 -435 -763 -784 -1112 -1119 -1371 -1313 -193 -145 -412 -344 -562
-510 -436 -485 -763 -1063 -1020 -1802 -47 -134 -94 -300 -176 -610 -45 -168
-101 -381 -127 -475 -187 -697 -247 -936 -360 -1430 -202 -887 -282 -1449
-290 -2050 -4 -297 -10 -391 -40 -555 -14 -77 -23 -209 -56 -840 -11 -216 -7
-262 36 -425 32 -118 35 -131 50 -205 42 -208 98 -436 118 -473 5 -10 37 -52
72 -95 82 -101 211 -269 261 -341 22 -32 55 -77 74 -100 37 -46 88 -139 212
-386 97 -192 138 -294 213 -525 31 -96 75 -231 98 -300 76 -236 184 -459 321
-665 97 -146 142 -205 241 -315 88 -98 110 -140 456 -865 29 -60 77 -159 107
-220 31 -60 70 -147 88 -193 l34 -84 -53 -116 c-92 -201 -109 -273 -137 -577
-14 -146 -26 -594 -23 -822 l3 -183 -63 0 -62 0 -38 -84 c-114 -255 -325 -571
-569 -856 -408 -476 -1206 -1197 -1717 -1552 -63 -43 -68 -45 -160 -52 -580
-40 -1074 -89 -2000 -196 -194 -22 -804 -104 -940 -126 -52 -8 -200 -30 -329
-49 -433 -64 -1209 -219 -1626 -324 -353 -90 -663 -194 -852 -288 -553 -272
-1151 -833 -1778 -1667 -467 -623 -971 -1429 -1473 -2356 -103 -191 -522
-1019 -645 -1275 -223 -466 -432 -916 -520 -1120 -14 -33 -59 -136 -100 -230
-133 -305 -330 -770 -469 -1110 -22 -55 -55 -134 -73 -175 -76 -176 -315 -793
-315 -814 0 -3 5740 -6 12755 -6 l12755 0 -105 211 c-106 211 -451 886 -550
1074 -29 55 -117 224 -195 375 -307 591 -741 1394 -820 1517 -12 19 -9 36 28
155 56 177 114 405 156 613 154 756 152 1458 -5 2025 -29 106 -204 632 -277
835 -195 540 -380 841 -659 1073 -112 93 -114 100 -29 101 34 1 53 -9 131 -69
113 -85 241 -217 300 -309 60 -92 141 -260 166 -343 12 -38 24 -68 28 -68 27
0 78 101 124 246 63 201 72 257 72 486 l0 207 21 -20 c12 -11 40 -62 62 -112
22 -51 58 -130 80 -177 405 -873 902 -2129 1136 -2875 26 -82 61 -190 76 -240
108 -338 237 -864 289 -1170 32 -191 49 -335 86 -745 61 -682 176 -1775 254
-2434 23 -187 41 -343 41 -348 0 -4 1366 -8 3035 -8 l3035 0 0 48 c0 45 -6 56
-121 212 -67 91 -182 251 -256 355 -74 105 -202 284 -284 400 -83 116 -167
235 -187 265 -20 30 -83 119 -140 198 -57 78 -164 227 -237 330 -188 264 -271
378 -381 527 -53 72 -127 173 -164 226 -38 53 -167 224 -286 380 -120 156
-247 322 -283 369 -87 115 -443 550 -580 710 -153 179 -480 523 -620 653 -94
88 -485 404 -632 511 -435 317 -845 558 -1160 681 -81 31 -106 47 -170 106
-40 39 -117 109 -169 157 -238 218 -384 355 -495 464 -66 65 -131 125 -145
135 -29 20 -233 206 -375 344 -55 53 -136 128 -180 166 -44 39 -174 157 -289
264 -115 107 -261 241 -325 298 -262 235 -536 493 -533 502 0 4 13 76 27 160
14 85 32 181 40 214 8 33 28 143 45 245 33 196 91 505 115 605 7 33 30 159 50
280 20 121 47 274 60 340 55 279 76 390 105 560 17 99 40 223 51 275 38 178
41 205 36 266 -3 33 -7 66 -9 73 -2 8 41 24 127 46 184 47 338 95 500 155 77
28 183 66 235 85 142 49 164 60 285 140 370 245 918 852 1289 1429 44 68 143
247 158 286 48 123 181 604 267 971 16 70 36 146 44 170 8 24 27 98 42 164 15
66 34 145 42 175 8 30 30 116 49 190 20 74 57 223 84 330 27 107 62 247 79
310 17 63 53 203 81 310 27 107 54 206 59 220 5 14 34 104 64 200 92 294 144
456 217 680 70 213 127 401 180 595 15 55 34 120 43 146 8 25 27 101 41 170
15 68 34 153 43 189 22 86 22 362 0 441 -8 30 -25 101 -37 159 -55 265 -247
727 -373 898 -57 78 -62 115 -54 406 8 282 39 550 111 936 41 222 56 359 86
800 42 604 52 1034 25 1145 -21 89 -85 289 -96 300 -5 5 -9 15 -9 22 0 15
-164 353 -190 393 -10 14 -38 63 -64 109 -51 90 -43 56 -126 506 -89 482 -110
563 -225 870 -40 106 -208 435 -245 479 -4 6 -24 38 -42 71 -29 52 -68 105
-233 324 -86 114 -270 316 -510 559 -240 244 -406 394 -521 472 -13 8 -60 42
-106 75 -46 33 -108 75 -138 93 l-55 33 -31 98 -30 97 23 50 c31 68 37 120 23
206 -21 126 -104 308 -224 493 -170 262 -226 338 -563 757 -69 85 -183 193
-253 239 -177 116 -232 149 -420 248 -69 37 -147 75 -175 85 -27 10 -54 22
-60 26 -13 10 -174 75 -245 100 -338 115 -562 178 -843 234 -223 45 -437 35
-757 -35 -52 -11 -133 -34 -180 -50 -129 -45 -883 -157 -1350 -200 -285 -26
-832 19 -1210 100 -271 58 -407 98 -730 215 -585 212 -1039 288 -1325 221z
m1053 -424 c68 -10 125 -21 128 -23 2 -3 -43 -24 -102 -47 -170 -68 -395 -174
-480 -226 -139 -85 -197 -113 -288 -139 -49 -15 -91 -24 -93 -22 -2 2 44 32
103 67 124 74 202 139 189 159 -6 10 -27 11 -87 7 -142 -11 -326 -85 -602
-242 -145 -82 -279 -148 -341 -170 -53 -18 -364 -79 -455 -89 -46 -6 -26 4
130 62 374 139 621 253 793 366 47 31 126 96 174 145 48 49 102 95 118 103 49
25 156 57 220 68 94 14 451 3 593 -19z m4093 -147 c-1 -143 -30 -228 -138
-397 -74 -117 -144 -195 -271 -307 -66 -58 -121 -108 -121 -111 -1 -10 197 64
269 101 36 18 79 44 97 57 18 14 40 23 49 21 58 -11 78 -174 35 -275 -90 -205
-574 -383 -938 -344 -125 13 -255 81 -476 248 -107 81 -297 241 -297 250 0 3
10 -2 23 -10 262 -185 486 -303 657 -348 204 -53 445 -13 545 91 l26 27 -228
6 c-318 9 -451 30 -574 93 -111 56 -351 231 -472 345 l-52 49 105 -65 c320
-199 616 -308 840 -309 115 -1 164 10 226 50 36 23 82 80 72 88 -1 2 -73 8
-158 15 -171 13 -445 51 -548 77 -95 24 -232 81 -343 142 -95 53 -315 209
-307 218 3 2 32 -12 64 -31 488 -296 1219 -310 1590 -32 141 107 260 281 300
440 13 54 25 11 25 -89z m-2417 -618 c24 -80 114 -256 195 -377 152 -228 341
-418 571 -574 47 -32 87 -59 90 -62 3 -3 -13 -2 -35 2 -88 16 -196 48 -312 91
-67 25 -127 44 -134 42 -16 -5 57 -85 165 -181 l80 -70 -52 7 c-69 9 -212 51
-287 83 -89 39 -147 87 -322 267 -251 256 -315 345 -372 515 -22 64 -52 193
-47 199 2 1 56 -75 121 -170 65 -95 155 -223 201 -283 135 -182 262 -285 349
-285 l37 0 -47 53 c-81 92 -181 325 -219 511 -22 103 -22 286 0 286 1 0 10
-24 18 -54z m4416 -45 c102 -85 331 -401 506 -697 40 -67 42 -75 38 -130 -4
-51 1 -77 40 -189 24 -71 44 -131 43 -132 -1 -1 -35 58 -75 130 -40 73 -89
157 -108 187 -34 53 -35 54 -29 20 3 -19 22 -116 40 -215 19 -98 32 -181 30
-184 -6 -5 -7 -1 -50 141 -50 167 -105 301 -119 287 -11 -11 -25 -108 -32
-216 -6 -104 -23 -178 -24 -105 -1 88 -57 286 -113 401 -38 77 -122 171 -185
209 -71 41 -148 53 -377 59 -191 5 -257 2 -495 -23 l-55 -6 25 22 c33 28 129
77 210 107 44 17 94 26 155 30 83 5 98 2 205 -32 88 -28 137 -38 210 -41 l95
-5 -135 46 c-213 71 -317 137 -296 190 5 15 14 17 51 12 46 -7 187 -59 289
-107 33 -16 61 -28 63 -26 1 1 -44 32 -101 69 -118 77 -196 142 -196 164 0 22
25 12 243 -95 108 -54 197 -97 197 -96 0 1 -29 23 -64 48 -75 53 -151 135
-160 172 -8 29 6 52 39 64 27 10 80 -12 135 -59z m-6524 -284 c4 -4 -3 -15
-17 -24 -51 -35 -150 -138 -156 -162 -5 -19 0 -29 23 -47 15 -13 26 -25 24
-27 -3 -2 -26 -16 -52 -31 -80 -45 -171 -127 -483 -436 -312 -308 -376 -361
-543 -444 -84 -42 -173 -78 -178 -73 -3 2 28 26 68 52 116 77 204 150 342 285
139 136 235 243 181 202 -130 -98 -231 -153 -430 -232 -242 -97 -627 -230
-982 -341 -106 -32 -200 -62 -210 -65 -39 -14 23 23 87 50 359 157 904 452
1170 634 279 191 494 396 459 439 -46 54 -399 -87 -1094 -437 -203 -103 -439
-224 -523 -269 -85 -46 -156 -81 -158 -79 -4 5 243 198 411 320 407 296 740
487 1010 577 134 45 371 96 515 110 111 11 525 10 536 -2z m5724 -510 c674
-277 1218 -524 1442 -653 66 -38 332 -225 503 -355 370 -279 618 -487 840
-701 157 -152 257 -267 340 -394 32 -49 91 -132 130 -184 83 -110 150 -210
224 -332 67 -112 237 -461 291 -598 73 -183 136 -493 190 -924 l21 -169 73
-131 c109 -194 249 -478 289 -586 78 -209 80 -260 37 -940 -44 -687 -60 -857
-106 -1094 -89 -464 -138 -985 -115 -1232 13 -147 20 -169 87 -264 134 -193
297 -599 358 -887 42 -202 49 -289 31 -399 -40 -248 -111 -513 -287 -1069
-102 -320 -144 -453 -201 -630 -63 -192 -132 -431 -205 -710 -60 -227 -199
-778 -207 -820 l-6 -30 15 25 c8 14 15 20 16 13 1 -38 -184 -787 -260 -1053
-147 -512 -227 -712 -381 -942 -311 -464 -719 -913 -1078 -1187 -240 -183
-489 -296 -846 -385 -129 -32 -380 -86 -466 -101 -21 -3 -42 -12 -48 -19 -21
-25 -23 -80 -7 -141 8 -32 14 -61 12 -62 -2 -2 -27 2 -57 8 -154 31 -501 271
-545 375 -51 122 19 185 471 421 563 295 670 352 805 426 379 209 533 323 676
501 115 143 181 287 205 445 12 86 7 212 -11 299 -16 72 -80 232 -93 232 -7 0
-22 44 -35 103 -33 145 -59 193 -151 279 -257 242 -893 471 -1511 544 -178 21
-535 24 -665 6 -189 -27 -570 -126 -1000 -259 -115 -36 -239 -74 -275 -85 -84
-25 -574 -182 -665 -213 -66 -22 -491 -156 -620 -195 -33 -10 -107 -33 -165
-50 -136 -42 -388 -112 -565 -157 -160 -41 -321 -54 -428 -34 -254 48 -471
170 -709 400 -240 231 -442 514 -641 900 l-84 162 -7 -82 c-19 -229 -114 -575
-255 -928 -23 -57 -51 -121 -62 -143 -66 -130 -193 -186 -360 -158 -261 44
-654 269 -1119 641 -326 261 -741 643 -974 896 -168 182 -234 239 -303 259
-72 21 -118 7 -171 -50 -42 -46 -56 -72 -97 -186 -29 -79 -31 -125 -10 -259
46 -294 172 -625 374 -979 86 -151 150 -232 261 -329 271 -237 671 -425 1350
-635 235 -72 483 -140 1270 -348 749 -198 1168 -327 1645 -505 195 -73 816
-285 1010 -345 322 -99 603 -185 725 -222 74 -22 185 -55 245 -73 61 -19 160
-47 220 -64 61 -17 182 -51 270 -76 407 -115 897 -247 1432 -385 166 -42 300
-79 298 -82 -2 -2 -46 2 -97 9 -142 20 -552 28 -700 14 -125 -12 -377 -59
-433 -81 -38 -15 -35 -17 130 -76 379 -137 737 -220 989 -231 127 -6 140 -8
167 -30 125 -105 74 -686 -135 -1548 -79 -323 -210 -805 -219 -805 -4 0 -7
338 -7 751 1 413 -1 753 -3 755 -6 6 -165 -718 -231 -1052 -50 -256 -73 -405
-85 -548 -9 -108 -19 -129 -90 -183 -69 -53 -289 -116 -507 -144 l-92 -12
-118 51 c-192 82 -506 186 -691 227 -66 15 -73 19 -68 38 3 12 50 254 105 537
318 1633 389 1980 420 2065 76 206 -86 432 -421 589 -158 74 -199 87 -999 321
-162 47 -358 104 -435 126 -77 23 -183 54 -235 69 -197 59 -1292 369 -1656
469 -197 54 -301 78 -219 49 1864 -651 2867 -1128 3026 -1440 22 -44 61 -187
81 -298 20 -117 17 -608 -5 -785 -48 -374 -107 -694 -197 -1055 -46 -184 -107
-410 -112 -416 -6 -5 -555 205 -935 357 -1460 584 -2645 1163 -3425 1675 -317
208 -496 350 -708 563 -330 331 -535 687 -607 1056 -24 125 -24 412 0 509 10
38 16 71 14 73 -4 3 -242 -257 -582 -635 -66 -74 -121 -130 -122 -125 -2 5 17
68 43 139 25 71 97 273 159 449 62 176 116 328 120 338 4 9 3 17 -1 16 -5 0
-150 -180 -323 -400 -172 -220 -315 -399 -317 -396 -2 2 70 225 161 497 91
272 163 495 162 497 -4 4 -70 -93 -329 -480 -110 -164 -202 -297 -204 -295 -3
4 98 801 127 991 6 43 9 80 7 83 -3 2 -28 -58 -56 -133 -28 -76 -81 -217 -118
-313 -36 -96 -119 -316 -184 -489 l-118 -314 -7 62 c-8 72 1 498 16 736 25
394 65 552 188 743 23 34 41 66 41 71 0 4 -41 95 -91 202 l-92 194 -13 205
c-7 113 -20 293 -28 400 -18 234 -23 343 -14 350 4 3 46 -31 95 -76 48 -44 94
-84 101 -88 7 -4 0 19 -14 51 -94 206 -159 474 -122 511 26 26 65 -20 169
-204 33 -60 58 -95 54 -79 -55 236 -75 385 -75 558 0 171 26 237 105 267 16 6
115 15 220 20 445 21 705 117 753 279 16 51 15 80 -4 132 -8 24 -20 70 -25
102 -10 62 -90 308 -184 572 -32 88 -66 184 -76 212 -17 46 -21 102 -29 405
-11 400 -28 552 -81 712 -38 119 -36 179 11 324 34 103 37 147 14 180 -30 43
-85 25 -198 -67 -95 -77 -247 -246 -240 -266 4 -8 1 -15 -6 -15 -22 0 -5 -18
78 -80 173 -130 235 -255 181 -367 -43 -88 -124 -140 -509 -321 -89 -42 -130
-81 -130 -124 0 -22 -7 -37 -20 -46 -23 -14 -26 -51 -6 -90 26 -50 142 -151
411 -357 141 -109 185 -153 185 -187 0 -35 -20 -75 -52 -105 -18 -17 -53 -28
-138 -43 -154 -28 -360 -97 -560 -187 -91 -41 -196 -86 -233 -100 l-69 -24
-52 25 c-38 19 -84 59 -165 146 -137 146 -356 344 -549 497 l-23 18 22 49 c54
123 22 280 -93 455 -26 41 -26 41 92 -9 41 -17 101 -38 134 -47 53 -13 60 -13
74 1 15 14 12 21 -26 73 -338 462 -496 844 -479 1158 7 124 29 199 137 460
103 252 210 571 247 740 22 105 28 155 28 260 0 116 -3 135 -24 178 -59 120
-269 226 -520 264 -61 9 -111 19 -111 23 0 5 98 95 147 133 40 32 242 70 378
71 106 1 125 -2 161 -21 100 -54 133 -135 145 -361 10 -188 9 -186 60 -397 46
-193 75 -401 90 -653 6 -103 14 -194 16 -202 3 -8 12 14 19 50 7 36 25 111 40
168 24 94 29 102 51 102 13 0 35 -11 48 -25 39 -39 34 -92 -20 -200 -140 -279
-138 -765 5 -1070 73 -157 167 -251 322 -325 159 -75 342 -89 568 -45 139 28
173 46 178 93 4 38 -14 73 -96 187 -88 123 -116 182 -153 326 -27 101 -33 142
-32 224 0 116 23 196 118 410 30 69 62 151 70 182 28 109 12 255 -41 373 l-27
61 -17 -38 c-35 -76 -120 -128 -227 -139 -76 -8 -82 -1 -128 151 -59 194 -112
350 -175 510 -32 84 -65 189 -75 240 -9 50 -26 109 -37 132 -30 64 -112 130
-255 206 -162 85 -182 100 -167 124 6 10 29 24 52 32 39 14 45 13 152 -22 154
-51 229 -62 325 -48 73 11 78 10 128 -15 76 -38 201 -122 288 -192 165 -133
177 -200 41 -223 -70 -12 -287 2 -323 22 -14 7 -19 6 -19 -3 0 -35 53 -237 88
-339 71 -205 133 -299 199 -299 72 0 144 59 254 210 81 111 121 178 114 190
-3 5 9 29 28 53 117 144 197 296 197 372 0 78 -28 110 -193 219 -78 52 -172
122 -207 155 l-65 60 30 26 c40 33 160 91 208 100 63 11 95 -2 113 -43 235
-552 334 -824 384 -1056 17 -82 45 -189 61 -239 l29 -89 -24 -29 c-14 -16 -34
-55 -46 -86 -19 -50 -21 -72 -17 -163 5 -122 38 -226 109 -344 120 -199 336
-413 511 -507 84 -44 213 -69 405 -76 163 -6 182 -2 146 28 -9 7 -44 54 -79
103 -112 162 -148 258 -120 319 8 17 24 44 36 59 35 43 35 136 -1 478 -42 411
-45 519 -31 1365 18 1091 33 1261 136 1506 54 129 319 490 690 939 94 113 193
234 220 269 28 35 68 86 91 115 53 67 377 498 523 696 63 85 129 173 145 195
36 46 28 42 -79 -41 -178 -137 -315 -219 -315 -189 0 20 128 190 365 484 10
13 -21 -8 -69 -48 -139 -113 -204 -138 -228 -85 -25 54 60 216 201 382 33 39
59 72 57 72 -2 0 -36 -15 -77 -34 -114 -52 -156 -63 -176 -44 -14 15 -12 22
18 79 19 34 77 121 130 193 54 72 96 132 95 133 -1 1 -33 -9 -71 -23 -38 -14
-80 -24 -94 -22 -26 3 -26 5 -33 108 -6 99 -43 353 -53 370 -12 19 600 837
804 1075 69 79 421 475 476 533 11 12 32 11 135 -3 78 -11 154 -16 213 -13 86
5 100 9 215 62 l122 57 78 -64 c339 -279 753 -466 1158 -523 139 -19 425 -14
559 10 44 8 172 31 285 51 628 110 1076 227 1327 345 105 49 278 160 453 289
52 39 100 69 105 67 6 -2 125 -51 265 -109z m-7275 -2175 c-37 -148 -103 -299
-187 -428 -119 -183 -196 -318 -283 -497 -46 -95 -86 -182 -90 -194 -5 -18 23
-2 124 71 225 162 361 230 361 181 0 -16 -69 -151 -258 -505 l-45 -85 34 30
c19 17 77 71 129 119 143 135 293 261 345 291 61 36 73 24 39 -40 -31 -59 -51
-84 -200 -256 -318 -367 -421 -600 -623 -1404 -35 -141 -91 -327 -135 -451
-42 -117 -99 -289 -128 -383 -29 -95 -54 -162 -56 -151 -9 55 94 739 160 1065
48 238 94 400 155 550 59 146 147 321 185 368 16 21 28 41 24 44 -10 10 -74
-8 -137 -39 -77 -38 -205 -162 -268 -258 -65 -99 -164 -310 -216 -460 -26 -74
-50 -139 -54 -143 -4 -4 -16 21 -27 55 -27 91 -25 265 5 373 64 232 207 515
373 738 49 64 88 119 88 122 0 12 -27 3 -107 -35 -254 -119 -469 -332 -602
-597 -23 -46 -43 -83 -45 -83 -12 0 66 252 121 395 71 184 122 266 276 444 56
65 171 199 256 297 85 98 201 231 257 294 192 216 364 434 490 624 37 56 60
83 62 72 2 -9 -8 -64 -23 -124z m-4150 -5711 c130 -76 215 -195 215 -303 0
-27 -25 -112 -69 -232 -37 -105 -85 -253 -107 -328 -21 -76 -41 -138 -44 -138
-8 0 -45 238 -65 415 -28 252 -43 559 -29 612 7 25 14 24 99 -26z m-331 -713
c25 -68 53 -217 81 -443 24 -194 25 -219 15 -333 -13 -137 -8 -227 21 -352 26
-111 57 -171 161 -310 119 -159 198 -287 198 -322 0 -15 -5 -28 -10 -28 -13 0
-185 157 -258 234 -30 31 -66 84 -82 119 -74 165 -139 519 -170 937 -13 164
-11 506 3 528 14 21 25 13 41 -30z m2293 -7513 c69 -52 122 -95 117 -95 -21 1
-249 157 -252 173 -2 9 -1 17 3 17 3 0 62 -43 132 -95z m8973 -4511 c50 -42
130 -130 95 -104 -21 15 -154 131 -190 164 -38 36 42 -15 95 -60z m6340 -4699
c13 -14 21 -25 18 -25 -2 0 -15 11 -28 25 -13 14 -21 25 -18 25 2 0 15 -11 28
-25z m-8840 -2339 c141 -65 118 -64 -85 1 -163 52 -187 67 -100 61 45 -4 90
-19 185 -62z"/>
<path d="M17257 28188 c-26 -32 -44 -58 -39 -58 11 0 97 109 91 114 -2 1 -26
-23 -52 -56z"/>
<path d="M21237 25808 c-45 -35 -64 -145 -43 -248 25 -122 94 -249 185 -340
107 -108 200 -165 645 -395 215 -111 409 -213 431 -226 206 -122 320 -257 332
-389 7 -76 -7 -134 -71 -297 -29 -76 -59 -162 -66 -192 -16 -70 -8 -195 20
-286 23 -73 84 -188 117 -218 19 -16 21 -15 52 33 70 109 197 175 451 238 189
47 397 117 477 162 162 90 263 226 282 376 23 187 -39 446 -184 765 -76 167
-72 163 -121 139 -129 -66 -359 52 -661 342 -171 164 -266 236 -408 306 -242
120 -481 184 -850 227 -166 19 -564 21 -588 3z"/>
<path d="M21035 24513 c-301 -10 -737 -93 -984 -188 -166 -63 -398 -191 -741
-409 -307 -195 -485 -330 -457 -348 6 -4 89 -8 182 -8 l170 -1 -35 -30 c-32
-27 -33 -30 -10 -24 14 4 84 32 155 62 157 66 219 83 302 83 49 0 63 -3 63
-15 0 -14 -31 -51 -223 -272 -49 -56 -145 -150 -213 -209 -68 -59 -122 -109
-120 -111 2 -2 32 13 66 33 168 99 467 213 607 234 89 13 239 13 383 -1 122
-11 377 -45 407 -55 10 -3 -29 20 -87 51 -226 122 -284 195 -202 253 33 24
168 67 240 77 44 6 52 5 52 -10 0 -48 64 -208 109 -271 100 -142 227 -200 466
-211 101 -5 133 -2 202 15 132 34 240 118 299 235 13 26 29 47 35 47 35 0 193
-108 241 -165 63 -74 -49 -178 -306 -284 -28 -12 -21 -15 159 -77 104 -35 199
-74 211 -85 36 -34 15 -63 -83 -111 -46 -23 -83 -44 -83 -48 0 -12 45 -49 73
-59 47 -18 124 -13 202 14 116 39 261 112 305 153 32 31 45 38 70 34 18 -3 30
0 30 7 0 29 -96 291 -137 374 -98 200 -153 279 -295 433 -68 73 -87 100 -97
139 -6 26 -10 49 -8 52 18 17 266 -246 364 -386 2 -2 5 -2 8 0 6 7 -105 250
-161 352 -87 156 -166 255 -341 428 -206 203 -257 234 -447 275 -79 17 -263
30 -371 27z"/>
<path d="M26255 24289 c-130 -9 -201 -22 -357 -64 -242 -66 -501 -173 -655
-271 -82 -52 -114 -137 -152 -403 -30 -209 -90 -927 -78 -937 1 -1 137 130
303 291 315 306 387 364 529 428 160 71 299 97 521 97 137 0 157 2 205 24 82
35 312 111 424 140 205 51 335 55 495 16 41 -11 75 -18 76 -17 4 4 -205 189
-296 262 -209 167 -457 329 -590 386 -106 45 -245 60 -425 48z"/>
<path d="M20095 23084 c21 -32 44 -80 52 -107 19 -66 90 -137 164 -165 30 -11
106 -45 169 -75 63 -30 151 -66 195 -80 162 -50 522 -94 695 -83 135 8 210 17
210 26 0 13 -161 123 -258 177 -53 29 -133 67 -177 84 -66 25 -721 195 -980
254 -38 8 -78 18 -88 21 -15 5 -11 -7 18 -52z"/>
<path d="M26800 22959 c-113 -16 -341 -69 -474 -109 -320 -95 -530 -202 -735
-373 -46 -38 -105 -80 -131 -93 -35 -17 -51 -31 -59 -55 -16 -45 -14 -54 15
-88 33 -39 117 -65 273 -85 63 -8 118 -19 124 -25 15 -15 0 -72 -47 -168 -43
-88 -46 -92 -101 -117 -65 -29 -130 -78 -147 -109 -15 -29 11 -48 109 -80 73
-24 332 -80 450 -97 28 -5 58 -11 65 -16 17 -9 5 2 -64 59 -118 98 -141 185
-73 277 26 35 133 130 147 130 5 0 8 -15 8 -32 0 -55 27 -149 63 -223 62 -126
175 -209 377 -278 154 -52 408 -75 484 -43 41 17 94 79 116 136 10 24 22 46
27 47 14 5 87 -92 112 -147 11 -25 21 -64 21 -87 0 -87 -99 -167 -269 -216
-56 -16 -78 -26 -65 -30 92 -26 164 -51 164 -57 0 -4 53 -33 117 -65 141 -68
182 -106 206 -191 13 -46 47 -266 47 -302 0 -3 4 -2 9 4 6 5 15 43 22 84 8 50
27 107 56 170 25 52 63 138 84 189 22 52 43 97 48 100 14 9 43 334 44 491 2
278 -5 474 -19 530 -28 107 -134 280 -284 460 -84 102 -84 102 -59 46 12 -28
24 -78 27 -112 4 -60 4 -64 -21 -75 -22 -10 -33 -8 -74 15 -117 64 -248 121
-378 163 -77 24 -164 56 -193 71 -57 29 -132 101 -132 127 0 44 61 110 150
164 19 11 31 20 25 20 -5 -1 -35 -5 -65 -10z m401 -617 c96 -63 164 -126 238
-218 132 -163 230 -371 271 -575 21 -100 24 -199 11 -348 -5 -70 -10 -86 -29
-102 -16 -13 -29 -16 -45 -10 -20 7 -23 20 -34 115 -6 59 -17 129 -23 154 -6
26 -13 57 -15 70 -39 173 -150 432 -247 576 -29 43 -58 85 -63 95 -6 9 -38 42
-72 75 -67 63 -103 124 -103 172 0 59 16 58 111 -4z"/>
<path d="M24217 21943 c-2 -4 -12 -38 -21 -75 -25 -100 -49 -164 -96 -258 -60
-118 -113 -193 -195 -275 -88 -89 -184 -152 -472 -311 -304 -168 -437 -258
-548 -369 -142 -142 -195 -264 -195 -450 0 -229 99 -458 264 -613 68 -63 172
-123 236 -137 19 -4 55 -20 80 -35 25 -16 72 -41 105 -55 33 -15 69 -31 80
-35 38 -17 130 -39 265 -64 277 -51 333 -66 440 -116 137 -63 225 -97 390
-150 134 -43 168 -61 224 -116 32 -32 80 -127 73 -147 -2 -7 -39 -16 -88 -23
-77 -10 -90 -9 -159 12 -41 13 -120 42 -175 64 -151 62 -342 127 -413 141 -76
14 -238 7 -337 -15 -83 -19 -394 -94 -415 -100 -8 -3 -80 -23 -160 -46 -594
-165 -1229 -389 -1426 -501 -203 -116 -338 -330 -351 -559 l-6 -95 64 89 c79
111 103 135 163 165 57 28 212 75 356 107 118 26 354 82 505 118 128 31 351
93 535 151 659 206 909 267 1245 304 88 10 111 9 190 -7 50 -11 113 -30 140
-43 63 -29 182 -147 215 -214 14 -27 30 -53 35 -57 13 -10 59 -1 159 28 191
57 348 7 622 -197 155 -116 377 -385 699 -848 194 -279 200 -286 220 -286 36
0 46 41 42 165 -5 138 -27 214 -101 337 -114 190 -436 611 -635 830 -199 220
-462 415 -621 461 -19 6 -48 14 -65 19 -62 17 -32 108 55 168 43 30 149 52
193 41 35 -8 99 -66 149 -134 85 -114 172 -132 284 -58 31 21 94 74 140 118
98 94 119 140 112 241 -3 44 1 79 15 122 30 93 27 244 -7 360 -34 115 -101
255 -179 373 -58 88 -77 107 -77 80 0 -7 -16 -54 -35 -103 -45 -116 -64 -130
-180 -129 -144 1 -302 65 -409 165 -52 48 -74 79 -112 156 -80 164 -225 291
-459 404 -217 104 -397 142 -582 120 -108 -12 -402 -71 -583 -116 -261 -65
-438 -72 -428 -16 8 45 208 108 859 270 546 137 593 152 642 211 102 121 30
426 -193 825 -69 123 -66 119 -73 108z"/>
<path d="M18826 21503 c-15 -16 152 -358 278 -566 371 -617 886 -1149 1338
-1382 49 -26 91 -45 94 -43 2 3 -33 60 -77 129 -337 514 -549 924 -549 1062 0
116 112 172 340 169 97 -1 264 -19 360 -38 14 -3 -17 17 -67 45 -127 69 -235
137 -386 243 -189 132 -349 199 -641 268 -197 46 -678 125 -690 113z"/>
<path d="M25748 21474 c-4 -4 68 -58 160 -120 92 -62 250 -169 352 -238 102
-68 246 -166 320 -217 74 -51 158 -104 185 -119 28 -15 99 -55 158 -88 310
-172 496 -174 501 -5 1 32 -1 34 -65 57 -97 34 -232 116 -539 327 -101 69
-290 190 -311 197 -13 6 -49 21 -79 35 -108 49 -336 114 -516 146 -61 11 -122
23 -135 26 -14 3 -28 3 -31 -1z"/>
<path d="M27876 19329 c-3 -8 -7 -158 -9 -334 -4 -325 -22 -532 -52 -600 -70
-159 -81 -178 -132 -225 -55 -51 -130 -82 -225 -95 l-48 -6 0 -52 c-1 -29 7
-333 16 -677 13 -485 20 -628 30 -639 8 -8 15 -13 16 -10 18 28 162 328 178
369 12 30 30 69 40 85 10 17 26 50 36 75 10 25 21 47 24 50 4 3 26 52 50 110
23 58 48 116 56 130 21 40 72 162 79 193 4 15 12 27 17 27 6 0 8 7 4 15 -3 8
-2 15 2 15 5 0 16 24 27 53 10 28 26 66 35 84 9 17 34 85 56 150 21 65 42 120
46 123 11 9 36 120 49 215 18 141 -7 395 -48 482 -8 18 -11 37 -7 44 4 7 3 9
-3 6 -5 -3 -15 15 -22 41 -15 58 -117 263 -134 270 -4 2 -5 8 -1 13 3 5 1 9
-5 9 -6 0 -17 16 -26 35 -21 43 -43 63 -49 44z"/>
<path d="M13395 18127 c-101 -104 -187 -160 -293 -193 -94 -29 -156 -72 -185
-126 -22 -44 -35 -118 -19 -118 5 0 12 -9 15 -19 6 -23 57 -57 107 -71 239
-69 462 -90 527 -50 91 55 92 206 2 477 -28 83 -56 158 -62 167 -10 13 -24 3
-92 -67z"/>
<path d="M22985 18131 c-27 -10 -147 -42 -265 -71 -710 -173 -835 -210 -996
-286 -52 -25 -112 -62 -134 -83 -34 -32 -40 -44 -40 -80 0 -55 20 -101 68
-153 22 -24 46 -56 55 -73 48 -94 128 -105 287 -41 152 61 378 110 665 145 94
11 199 25 235 31 136 21 506 32 664 20 83 -7 154 -13 157 -15 3 -2 88 -18 190
-35 101 -17 220 -39 264 -50 44 -11 136 -33 205 -49 133 -31 366 -93 515 -135
285 -82 706 -483 654 -623 -11 -29 -59 -53 -108 -53 -55 0 -176 40 -253 83
-34 19 -97 65 -138 101 -88 77 -165 118 -275 147 -113 30 -374 36 -642 15
-402 -32 -526 -15 -838 112 -66 27 -135 56 -153 66 -19 10 -36 15 -39 12 -3
-2 15 -46 40 -98 40 -82 46 -103 51 -183 8 -122 51 -395 83 -530 52 -221 119
-384 199 -481 78 -97 229 -152 385 -141 110 8 279 44 484 102 243 69 346 88
409 75 114 -24 229 -102 378 -259 80 -84 229 -269 257 -319 6 -11 15 -9 42 6
19 11 80 37 137 58 95 34 105 41 127 78 30 52 51 129 64 231 11 81 24 590 21
830 l-1 130 20 -25 c35 -43 131 -201 246 -404 38 -68 90 -123 128 -136 25 -8
42 -27 75 -84 l43 -75 36 15 c59 25 160 93 192 129 37 43 46 85 37 189 -7 103
-37 220 -77 307 -34 74 -50 92 -101 117 -58 30 -199 225 -383 532 -52 88 -85
133 -81 115 3 -16 19 -101 36 -189 41 -213 48 -294 27 -302 -8 -3 -25 -1 -36
5 -31 17 -144 157 -303 376 -151 208 -209 304 -300 490 l-53 110 -7 -90 c-6
-85 -23 -159 -48 -204 -14 -27 -61 -51 -98 -51 -38 0 -248 103 -261 129 -7 12
-11 94 -11 208 0 164 -3 193 -20 231 -17 38 -53 66 -71 56 -3 -2 -82 -13 -175
-24 -93 -11 -231 -29 -306 -41 -84 -13 -152 -19 -174 -14 -46 8 -102 61 -110
104 -4 17 -9 31 -13 31 -3 0 -22 -28 -41 -62 -53 -93 -133 -170 -200 -191
-228 -73 -704 -90 -882 -31 -56 18 -98 55 -98 85 0 38 79 102 206 167 123 63
134 73 49 43z"/>
<path d="M15990 13423 c136 -65 342 -144 595 -228 316 -105 506 -160 1195
-340 118 -31 236 -63 263 -70 26 -8 47 -11 47 -7 0 4 -80 33 -178 65 -97 32
-285 93 -417 136 -628 205 -1556 492 -1586 490 -8 0 29 -21 81 -46z"/>
</g>
</svg>
